<?xml version="1.0" encoding="UTF-8"?>
<svg xmlns="http://www.w3.org/2000/svg" xmlns:xlink="http://www.w3.org/1999/xlink" width="64pt" height="64pt" viewBox="0 0 64 64" version="1.1">
<g id="surface1151483">
<rect x="0" y="0" width="64" height="64" style="fill:rgb(0%,0%,0%);fill-opacity:0;stroke:none;"/>
<path style=" stroke:none;fill-rule:nonzero;fill:rgb(67.45098%,89.019608%,100%);fill-opacity:1;" d="M 7 17 L 32 3 L 58 17 L 32 31 Z M 7 17 "/>
<path style=" stroke:none;fill-rule:nonzero;fill:rgb(67.45098%,89.019608%,100%);fill-opacity:1;" d="M 6 17 L 6 47 L 32 62 L 32 31 Z M 6 17 "/>
<path style=" stroke:none;fill-rule:nonzero;fill:rgb(48.235294%,74.509804%,92.156863%);fill-opacity:1;" d="M 17 23 L 32 15 L 47 23 L 32 31 Z M 17 23 "/>
<path style=" stroke:none;fill-rule:nonzero;fill:rgb(67.45098%,89.019608%,100%);fill-opacity:1;" d="M 32 62 L 59 47 L 59 17 L 32 31 Z M 32 62 "/>
<path style=" stroke:none;fill-rule:nonzero;fill:rgb(48.235294%,74.509804%,92.156863%);fill-opacity:1;" d="M 17 23 L 17 41 L 32 49 L 32 31 Z M 17 23 "/>
<path style=" stroke:none;fill-rule:nonzero;fill:rgb(48.235294%,74.509804%,92.156863%);fill-opacity:1;" d="M 32 49 L 47 41 L 47 23 L 32 31 Z M 32 49 "/>
<path style=" stroke:none;fill-rule:nonzero;fill:rgb(89.019608%,94.901961%,100%);fill-opacity:1;" d="M 17 41 L 6 47 L 6 17 L 17 23 Z M 17 41 "/>
<path style=" stroke:none;fill-rule:nonzero;fill:rgb(55.294118%,42.352941%,62.352941%);fill-opacity:1;" d="M 32 32 C 31.839844 32 31.675781 31.960938 31.527344 31.882812 L 16.527344 23.882812 C 16.203125 23.710938 16 23.367188 16 23 C 16 22.632812 16.203125 22.289062 16.527344 22.117188 L 31.527344 14.117188 C 31.824219 13.960938 32.175781 13.960938 32.46875 14.117188 L 47.46875 22.117188 C 47.796875 22.289062 48 22.632812 48 23 C 48 23.367188 47.796875 23.710938 47.472656 23.882812 L 32.472656 31.882812 C 32.324219 31.960938 32.160156 32 32 32 Z M 19.125 23 L 32 29.867188 L 44.875 23 L 32 16.132812 Z M 19.125 23 "/>
<path style=" stroke:none;fill-rule:nonzero;fill:rgb(55.294118%,42.352941%,62.352941%);fill-opacity:1;" d="M 17 27 C 16.449219 27 16 26.554688 16 26 L 16 23.59375 L 5.519531 17.878906 C 5.199219 17.703125 5 17.363281 5 16.996094 C 5 16.632812 5.203125 16.292969 5.527344 16.117188 L 31.527344 2.117188 C 32.011719 1.855469 32.617188 2.039062 32.878906 2.527344 C 33.140625 3.011719 32.960938 3.617188 32.472656 3.878906 L 8.097656 17.007812 L 17.480469 22.121094 C 17.800781 22.296875 18 22.632812 18 23 L 18 26 C 18 26.554688 17.550781 27 17 27 Z M 17 27 "/>
<path style=" stroke:none;fill-rule:nonzero;fill:rgb(55.294118%,42.352941%,62.352941%);fill-opacity:1;" d="M 17 35 C 16.449219 35 16 34.554688 16 34 L 16 30 C 16 29.445312 16.449219 29 17 29 C 17.550781 29 18 29.445312 18 30 L 18 34 C 18 34.554688 17.550781 35 17 35 Z M 17 35 "/>
<path style=" stroke:none;fill-rule:nonzero;fill:rgb(55.294118%,42.352941%,62.352941%);fill-opacity:1;" d="M 32 50 C 31.839844 50 31.675781 49.960938 31.527344 49.882812 L 16.527344 41.882812 C 16.203125 41.710938 16 41.367188 16 41 L 16 38 C 16 37.445312 16.449219 37 17 37 C 17.550781 37 18 37.445312 18 38 L 18 40.398438 L 31 47.332031 L 31 31 C 31 30.445312 31.449219 30 32 30 C 32.550781 30 33 30.445312 33 31 L 33 49 C 33 49.351562 32.816406 49.675781 32.515625 49.855469 C 32.355469 49.953125 32.179688 50 32 50 Z M 32 50 "/>
<path style=" stroke:none;fill-rule:nonzero;fill:rgb(52.156863%,79.607843%,97.254902%);fill-opacity:1;" d="M 59 47 L 32 61 L 32 49 L 47 41 Z M 59 47 "/>
<path style=" stroke:none;fill-rule:nonzero;fill:rgb(55.294118%,42.352941%,62.352941%);fill-opacity:1;" d="M 32 63 C 31.824219 63 31.648438 62.953125 31.492188 62.863281 C 31.1875 62.683594 31 62.355469 31 62 L 31 49 C 31 48.445312 31.449219 48 32 48 C 32.550781 48 33 48.445312 33 49 L 33 60.300781 L 58.515625 46.125 C 58.996094 45.855469 59.605469 46.03125 59.875 46.515625 C 60.144531 46.996094 59.96875 47.605469 59.484375 47.875 L 32.484375 62.875 C 32.335938 62.957031 32.167969 63 32 63 Z M 32 63 "/>
<path style=" stroke:none;fill-rule:nonzero;fill:rgb(55.294118%,42.352941%,62.352941%);fill-opacity:1;" d="M 47 42 C 46.449219 42 46 41.554688 46 41 L 46 23 C 46 22.621094 46.214844 22.273438 46.554688 22.105469 L 56.796875 16.984375 L 33 4.644531 L 33 15 C 33 15.554688 32.550781 16 32 16 C 31.449219 16 31 15.554688 31 15 L 31 3 C 31 2.648438 31.183594 2.328125 31.480469 2.144531 C 31.777344 1.964844 32.148438 1.953125 32.460938 2.113281 L 59.460938 16.113281 C 59.792969 16.285156 60.003906 16.632812 60 17.007812 C 59.996094 17.386719 59.785156 17.726562 59.445312 17.894531 L 48 23.617188 L 48 41 C 48 41.554688 47.550781 42 47 42 Z M 47 42 "/>
<path style=" stroke:none;fill-rule:nonzero;fill:rgb(55.294118%,42.352941%,62.352941%);fill-opacity:1;" d="M 44.140625 44.660156 C 43.78125 44.660156 43.4375 44.46875 43.257812 44.132812 L 42.316406 42.367188 C 42.054688 41.878906 42.238281 41.273438 42.726562 41.011719 C 43.214844 40.753906 43.820312 40.9375 44.078125 41.425781 L 45.019531 43.1875 C 45.28125 43.675781 45.097656 44.28125 44.609375 44.542969 C 44.457031 44.621094 44.296875 44.660156 44.140625 44.660156 Z M 44.140625 44.660156 "/>
<path style=" stroke:none;fill-rule:nonzero;fill:rgb(55.294118%,42.352941%,62.352941%);fill-opacity:1;" d="M 39.972656 46.882812 C 39.613281 46.882812 39.269531 46.691406 39.089844 46.355469 L 38.148438 44.589844 C 37.886719 44.101562 38.070312 43.492188 38.558594 43.234375 C 39.046875 42.976562 39.652344 43.160156 39.914062 43.644531 L 40.855469 45.410156 C 41.113281 45.898438 40.929688 46.507812 40.441406 46.765625 C 40.289062 46.84375 40.128906 46.882812 39.972656 46.882812 Z M 39.972656 46.882812 "/>
<path style=" stroke:none;fill-rule:nonzero;fill:rgb(55.294118%,42.352941%,62.352941%);fill-opacity:1;" d="M 35.804688 49.105469 C 35.449219 49.105469 35.101562 48.910156 34.921875 48.574219 L 33.980469 46.808594 C 33.71875 46.324219 33.902344 45.71875 34.390625 45.457031 C 34.882812 45.195312 35.484375 45.382812 35.746094 45.867188 L 36.6875 47.632812 C 36.945312 48.121094 36.761719 48.726562 36.273438 48.984375 C 36.125 49.066406 35.964844 49.105469 35.804688 49.105469 Z M 35.804688 49.105469 "/>
<path style=" stroke:none;fill-rule:nonzero;fill:rgb(55.294118%,42.352941%,62.352941%);fill-opacity:1;" d="M 59 48 C 58.847656 48 58.695312 47.964844 58.554688 47.894531 L 46.554688 41.894531 C 46.058594 41.648438 45.859375 41.046875 46.105469 40.554688 C 46.351562 40.058594 46.953125 39.859375 47.449219 40.105469 L 58 45.382812 L 58 17 C 58 16.445312 58.449219 16 59 16 C 59.550781 16 60 16.445312 60 17 L 60 47 C 60 47.347656 59.820312 47.667969 59.527344 47.851562 C 59.363281 47.949219 59.183594 48 59 48 Z M 59 48 "/>
<path style=" stroke:none;fill-rule:nonzero;fill:rgb(55.294118%,42.352941%,62.352941%);fill-opacity:1;" d="M 6 48 C 5.824219 48 5.644531 47.953125 5.488281 47.859375 C 5.1875 47.679688 5 47.351562 5 47 L 5 17 C 5 16.445312 5.449219 16 6 16 C 6.550781 16 7 16.445312 7 17 L 7 45.316406 L 16.519531 40.121094 C 17.007812 39.859375 17.613281 40.035156 17.878906 40.519531 C 18.144531 41.003906 17.964844 41.613281 17.480469 41.878906 L 6.480469 47.878906 C 6.328125 47.960938 6.164062 48 6 48 Z M 6 48 "/>
<path style=" stroke:none;fill-rule:nonzero;fill:rgb(55.294118%,42.352941%,62.352941%);fill-opacity:1;" d="M 32 63 C 31.828125 63 31.65625 62.957031 31.5 62.867188 L 5.5 47.867188 C 5.023438 47.589844 4.859375 46.980469 5.132812 46.5 C 5.410156 46.023438 6.019531 45.855469 6.5 46.132812 L 32.5 61.132812 C 32.980469 61.410156 33.144531 62.023438 32.867188 62.5 C 32.679688 62.820312 32.34375 63 32 63 Z M 32 63 "/>
</g>
</svg>
