<?xml version="1.0" encoding="UTF-8"?>
<svg xmlns="http://www.w3.org/2000/svg" xmlns:xlink="http://www.w3.org/1999/xlink" width="48pt" height="48pt" viewBox="0 0 48 48" version="1.1">
<g id="surface1160028">
<rect x="0" y="0" width="48" height="48" style="fill:rgb(0%,0%,0%);fill-opacity:0;stroke:none;"/>
<path style=" stroke:none;fill-rule:nonzero;fill:rgb(90.588235%,64.313725%,16.862745%);fill-opacity:1;" d="M 8 5 L 42 5 L 38 39 L 25 43 L 11 39 Z M 8 5 "/>
<path style=" stroke:none;fill-rule:nonzero;fill:rgb(94.901961%,74.901961%,13.333333%);fill-opacity:1;" d="M 38.628906 8 L 35.25 36.710938 L 25 39.859375 L 25 8 Z M 38.628906 8 "/>
<path style=" stroke:none;fill-rule:nonzero;fill:rgb(98.039216%,97.647059%,97.254902%);fill-opacity:1;" d="M 25 21 L 26 23 L 25 25 L 15.789062 25 L 16.640625 12 L 25 12 L 26 14 L 25 16 L 21.03125 16 L 20.699219 21 Z M 25 21 "/>
<path style=" stroke:none;fill-rule:nonzero;fill:rgb(92.156863%,92.156863%,92.156863%);fill-opacity:1;" d="M 24.898438 32.570312 L 25 32.539062 L 26 35 L 25 36.71875 L 24.941406 36.738281 L 16.609375 34.359375 L 16.050781 28 L 20.070312 28 L 20.351562 31.269531 Z M 24.898438 32.570312 "/>
<path style=" stroke:none;fill-rule:nonzero;fill:rgb(100%,100%,100%);fill-opacity:1;" d="M 34.070312 21 L 32.5 34.421875 L 25 36.71875 L 25 32.539062 L 28.828125 31.359375 L 29.570312 25 L 25 25 L 25 21 Z M 34.070312 21 "/>
<path style=" stroke:none;fill-rule:nonzero;fill:rgb(100%,100%,100%);fill-opacity:1;" d="M 34.921875 18 L 30.929688 18 L 30.671875 16 L 25 16 L 25 12 L 34.128906 12 L 34.300781 13.261719 Z M 34.921875 18 "/>
</g>
</svg>
