<svg width="180.6" height="95.3" xmlns="http://www.w3.org/2000/svg">

 <g>
  <title>background</title>
  <rect fill="#000000" id="canvas_background" height="97.3" width="182.6" y="-1" x="-1"/>
 </g>
 <g>
  <title>Layer 1</title>
  <path fill="#00678f" id="svg_1" d="m1.7,85.300003l5.8,0l0,-23.000004l9.1,20.000004c1,2.399994 2.5,3.299995 5.4,3.299995c2.9,0 4.200001,-0.900002 5.299999,-3.299995l9,-20.000004l0,23.000004l5.799999,0l0,-23.000004c0,-2.200001 -0.899998,-3.299999 -2.799999,-3.899998c-4.399998,-1.300003 -7.4,-0.200001 -8.699999,2.799999l-8.800001,19.799999l-8.599999,-19.799999c-1.3,-3 -4.3,-4.100002 -8.7,-2.799999c-1.9,0.599998 -2.8,1.599998 -2.8,3.899998l0,23.000004l0,0z" class="st0"/>
  <path fill="#00678f" id="svg_2" d="m46.900002,66.599998l5.799999,0l0,12.599998c0,0.700005 0.200001,2.300003 3.399998,2.400002c1.700001,0 12.599998,0 12.700005,0l0,-15.099998l5.799995,0c0,0 0,20.599998 0,20.699997c0,5.100006 -6.299995,6.200005 -9.199997,6.200005l-18.300003,0l0,-3.900002c0,0 18.400002,0 18.400002,0c3.699997,-0.400002 3.300003,-2.300003 3.300003,-2.900002l0,-1.5l-12.400002,0c-5.800003,0 -9.5,-2.599998 -9.5,-5.5c0,-0.299995 0.199997,-12.900002 0,-13l0,0z" class="st0"/>
  <path fill="#00678f" id="svg_3" d="m172.300003,51.900002c-3.600006,-0.100002 -6.300003,0.299999 -8.699997,1.199997c-0.700012,0.300003 -1.700012,0.300003 -1.800003,1.100002c0.399994,0.399998 0.399994,0.899998 0.699997,1.399998c0.5,0.900002 1.5,2.100002 2.300003,2.700001c0.899994,0.700001 1.899994,1.400002 2.899994,2.100002c1.699997,1.099998 3.699997,1.699997 5.400009,2.799999c1,0.599998 2,1.399998 2.899994,2.100002c0.5,0.399994 0.800003,0.899994 1.399994,1.199997c0,0 0,-0.099998 0,-0.099998c-0.299988,-0.400002 -0.399994,-1 -0.699997,-1.400002c-0.399994,-0.400002 -0.899994,-0.800003 -1.300003,-1.299999c-1.299988,-1.700001 -2.899994,-3.299999 -4.599991,-4.5c-1.400009,-1 -4.600006,-2.299999 -5.100006,-4c0,0 0,0 -0.099991,-0.100002c1,-0.099998 2.099991,-0.399998 3.099991,-0.699997c1.5,-0.400002 2.900009,-0.300003 4.5,-0.700001c0.699997,-0.200001 1.400009,-0.400002 2.100006,-0.600002c0,-0.099998 0,-0.299999 0,-0.399998c-0.800003,-0.799999 -1.400009,-1.900002 -2.199997,-2.600002c-2.300003,-2 -4.800003,-3.899998 -7.400009,-5.5c-1.399994,-0.899998 -3.199997,-1.5 -4.599991,-2.199997c-0.5,-0.300003 -1.400009,-0.400002 -1.700012,-0.800003c-0.799988,-1 -1.299988,-2.299999 -1.799988,-3.399998c-1.300003,-2.5 -2.5,-5.200001 -3.700012,-7.800001c-0.799988,-1.699999 -1.299988,-3.5 -2.299988,-5.1c-4.600006,-7.599998 -9.600006,-12.199999 -17.300003,-16.699999c-1.699997,-0.900001 -3.600006,-1.3 -5.699997,-1.8c-1.100006,0 -2.200005,-0.1 -3.300003,-0.2c-0.700005,-0.3 -1.400002,-1.2 -2.100006,-1.6c-2.5,-1.6 -9.099998,-5.1 -11,-0.5c-1.199997,2.9 1.800003,5.8 2.800003,7.2c0.800003,1 1.699997,2.2 2.300003,3.3c0.299995,0.8 0.399994,1.6 0.699997,2.4c0.699997,2 1.400002,4.1 2.300003,6c0.5,0.9 1,1.9 1.699997,2.800001c0.400002,0.5 1,0.699999 1.099998,1.5c-0.599998,0.9 -0.699997,2.199999 -1,3.299999c-1.599998,5 -1,11.299999 1.300003,15c0.699997,1.099998 2.400002,3.599998 4.700005,2.599998c2,-0.799999 1.599991,-3.299999 2.099991,-5.599998c0.100006,-0.5 0,-0.900002 0.300003,-1.200001c0,0 0,0.100002 0,0.100002c0.600006,1.199997 1.199997,2.5 1.800003,3.699997c1.399994,2.200001 3.800003,4.5 5.800003,6c1.099991,0.800003 1.899994,2.200001 3.299988,2.700001c0,0 0,-0.099998 0,-0.099998c0,0 0,0 -0.099991,0c-0.300003,-0.400002 -0.699997,-0.600002 -1,-0.900002c-0.800003,-0.799999 -1.699997,-1.799999 -2.300003,-2.700001c-1.899994,-2.5 -3.5,-5.299999 -5,-8.099998c-0.699997,-1.400002 -1.300003,-2.900002 -1.899994,-4.299999c-0.300003,-0.5 -0.300003,-1.299999 -0.700012,-1.600002c-0.699997,1 -1.699997,1.800003 -2.099991,3c-0.800003,1.900002 -0.900002,4.300003 -1.200005,6.700001c-0.199997,0 -0.099998,0 -0.199997,0.100002c-1.400002,-0.400002 -1.900002,-1.800003 -2.5,-3.100002c-1.300003,-3.200001 -1.599998,-8.299999 -0.400002,-11.9c0.300003,-0.9 1.699997,-3.9 1.099998,-4.799999c-0.299995,-0.800001 -1.199997,-1.300001 -1.699997,-2c-0.599998,-0.800001 -1.200005,-1.9 -1.599998,-2.9c-1.100006,-2.5 -1.600006,-5.300001 -2.800003,-7.800001c-0.5,-1.2 -1.5,-2.4 -2.199997,-3.4c-0.800003,-1.2 -1.800003,-2.1 -2.5,-3.5c-0.200005,-0.5 -0.5,-1.3 -0.200005,-1.8c0.099998,-0.4 0.300003,-0.5 0.599998,-0.6c0.600006,-0.5 2.200005,0.1 2.800003,0.4c1.699997,0.7 3,1.3 4.400002,2.2c0.599998,0.4 1.299995,1.3 2.099998,1.5c0.300003,0 0.599998,0 0.900002,0c1.400002,0.3 3,0.1 4.400002,0.5c2.399994,0.8 4.5,1.900001 6.399994,3.1c5.800003,3.7 10.699997,8.999999 13.900009,15.3c0.5,1 0.799988,2 1.199997,3c0.899994,2.199999 2.099991,4.4 3,6.6c0.899994,2.099998 1.800003,4.200001 3.199997,6c0.699997,0.899998 3.300003,1.399998 4.600006,1.899998c0.899994,0.400002 2.299988,0.800003 3.099991,1.200001c1.5,0.900002 3,2 4.5,3c0.699997,0.600002 3,1.700001 3.100006,2.600002l0,0z" class="st0"/>
  <path fill="#00678f" id="svg_4" d="m126.800003,13.2c-0.800003,0 -1.300003,0.1 -1.800003,0.2c0,0 0,0 0,0.1c0,0 0,0 0.099998,0c0.400002,0.7 1,1.2 1.400002,1.8c0.400002,0.7 0.699997,1.400001 1,2.099999c0,0 0.099998,-0.1 0.099998,-0.1c0.599998,-0.4 0.900002,-1.199999 0.900002,-2.199999c-0.300003,-0.3 -0.300003,-0.6 -0.5,-0.900001c-0.300003,-0.5 -0.900002,-0.7 -1.199997,-1l0,0z" class="st0"/>
  <path fill="#e38d1a" id="svg_5" d="m79.099998,85.300003l16.800003,0c2,0 3.799995,-0.400002 5.400002,-1.100006c2.5,-1.199997 3.699997,-2.699997 3.699997,-4.799995l0,-4.300003c0,-1.699997 -1.400002,-3.199997 -4.099998,-4.299995c-1.400002,-0.5 -3.200005,-0.800003 -5,-0.800003l-7,0c-2.400002,0 -3.5,-0.699997 -3.800003,-2.300003c0,-0.199997 0,-0.399994 0,-0.5l0,-2.599998c0,-0.099998 0,-0.299995 0,-0.5c0.300003,-1.199997 0.900002,-1.5 3,-1.699997c0.200005,0 0.400002,0 0.5,0l16.599998,0l0,-3.900002l-16.299995,0c-2.400002,0 -3.599998,0.099998 -4.700005,0.5c-3.399994,1.099998 -5,2.799999 -5,5.800003l0,3.199997c0,2.599998 2.900002,4.900002 7.900002,5.400002c0.5,0 1.099998,0 1.700005,0l6,0c0.199997,0 0.399994,0 0.599998,0c1.799995,0.199997 2.599998,0.5 3.199997,1.199997c0.400002,0.400002 0.400002,0.700005 0.400002,1.099998l0,3.400002c0,0.400002 -0.300003,0.900002 -0.800003,1.400002s-1.399994,0.800003 -2.5,0.800003c-0.199997,0 -0.399994,0 -0.599998,0l-16,0l0,4l0,0z" class="st1"/>
  <path fill="#e38d1a" id="svg_6" d="m141.300003,78.5c0,4 3,6.199997 9,6.599998c0.599991,0 1.099991,0.099998 1.699997,0.099998l15.199997,0l0,-3.899994l-15.300003,0c-3.399994,0 -4.699997,-0.800003 -4.699997,-2.900002l0,-20l-5.800003,0l-0.099991,20.099998l0,0z" class="st1"/>
  <path fill="#e38d1a" id="svg_7" d="m108.699997,78.699997l0,-13.799995c0,-3.5 2.5,-5.700001 7.400002,-6.300003c0.5,0 1.099998,-0.099998 1.599998,-0.099998l11.100006,0c0.599991,0 1.099991,0 1.699997,0.099998c4.899994,0.700001 7.300003,2.800003 7.300003,6.300003l0,13.799995c0,2.900002 -1,4.400002 -3.400009,5.400002l5.700012,5.200005l-6.700012,0l-4.599991,-4.200005l-4.700005,0.300003l-6.199997,0c-1,0 -2.200005,-0.099998 -3.400002,-0.400002c-4,-1.099998 -5.800003,-3.099998 -5.800003,-6.300003l0,0zm6.300003,-0.299995c0,0.199997 0.099998,0.400002 0.099998,0.599998c0.300003,1.599998 1.800003,2.5 4.099998,2.5l5.300003,0l-4.800003,-4.400002l6.700005,0l4.200005,3.800003c0.799988,-0.400002 1.299988,-1.099998 1.5,-1.900002c0,-0.199997 0,-0.400002 0,-0.599998l0,-13.200005c0,-0.199997 0,-0.399994 0,-0.5c-0.300003,-1.499996 -1.800003,-2.399998 -4.100006,-2.399998l-8.800003,0c-2.599998,0 -4.299995,1.100002 -4.299995,2.899998l0.099998,13.200005l0,0z" class="st1"/>
  <path fill="#e38d1a" id="svg_8" d="m169.800003,85.300003l0.800003,0l0,-3.300003l1.099991,0l0,-0.699997l-3.099991,0l0,0.699997l1.199997,0l0,3.300003l0,0zm6.5,0l0.800003,0l0,-3.900002l-1.200012,0l-1,2.699997l-1.099991,-2.699997l-1.199997,0l0,3.900002l0.799988,0l0,-3l0,0l1.100006,3l0.600006,0l1.099991,-3l0,0l0.100006,3l0,0z" class="st1"/>
 </g>
</svg>